<svg version="1.2" xmlns="http://www.w3.org/2000/svg" viewBox="0 0 211 98" width="211" height="98">
	<title>logo-svg</title>
	<style>
		.s0 { fill: #ffffff } 
	</style>
	<path id="Layer" fill-rule="evenodd" class="s0" d="m55.6 0.3h9.5c0.5 0 0.9 0.4 0.9 0.9v95.3c0 0.5-0.4 0.9-0.9 0.9h-9.5c-0.5 0-0.9-0.4-0.9-0.9v-95.3c0-0.5 0.4-0.9 0.9-0.9zm65.4 78.4v2.4c0 1.1-0.2 2.5-0.6 4.3-0.3 1.7-1.2 3.6-2.8 5.3-1.5 1.7-3.7 3.3-6.8 4.7-3.1 1.2-7.2 1.9-12.6 1.9-5.4 0-9.5-0.7-12.6-1.9-3.1-1.2-5.2-2.8-6.8-4.7-1.5-1.7-2.5-3.6-2.8-5.4-0.3-1.8-0.6-3.2-0.6-4.2v-54.3c0-0.5 0.4-0.9 0.9-0.9h9.5c0.5 0 0.9 0.4 0.9 0.9v50.8c0 1.7 0.2 2.9 0.5 3.8 0.2 1 0.7 1.9 1.4 2.7 0.7 0.9 1.8 1.6 3.3 2.2 1.4 0.6 3.4 0.9 5.9 0.9 2.6 0 4.7-0.3 6.2-0.9 1.5-0.6 2.7-1.2 3.4-2.1 0.8-0.8 1.3-1.7 1.6-2.7 0.2-1 0.6-1.7 0.6-4.1v-50.6c0-0.5 0.4-0.9 0.9-0.9h9.5c0.5 0 0.9 0.4 0.9 0.9zm32.4-52.7h6.4c0.6 0 1 0.6 0.8 1.1l-2.2 8.3c-0.1 0.4-0.5 0.7-0.8 0.7h-4.5c-2.4 0-4.3 0.3-5.8 1-1.4 0.7-2.7 1.3-3.4 2.2-0.7 0.9-1.2 1.7-1.5 2.7-0.2 1-0.3 1.8-0.3 2.7v51.9c0 0.5-0.4 0.9-0.9 0.9h-9.6c-0.5 0-0.9-0.4-0.9-0.9v-54.3q0-1.5 0.6-4.2c0.3-1.8 1.2-3.6 2.8-5.4 1.5-1.7 3.7-3.3 6.8-4.7 3-1.4 7.2-2 12.5-2zm-130.8 0c7.7 0 13.5 1.5 17.1 4.6 3.6 3.1 5.4 6.9 5.4 11.5v39c0 1.6-0.3 3.3-0.9 5.2-0.6 1.9-1.7 3.7-3.3 5.2-1.7 1.6-4 2.9-6.9 4-2.9 1.1-6.7 1.6-11.4 1.6-4.7 0-8.5-0.6-11.4-1.6-2.9-1-5.2-2.4-6.9-4-1.7-1.6-2.8-3.3-3.3-5.2-0.6-1.8-1-3.6-1-5.2v-6.2c0-3.3 0.9-6.4 2.6-9.2 1.8-2.7 4.2-4.7 7.3-5.8 1.6-0.6 3.3-1.1 5.4-1.8 2-0.7 4-1.3 5.9-2.1 1.9-0.7 3.5-1.2 5-1.7 1.4-0.6 2.3-0.8 2.7-1 0.3-0.2 0.8-0.4 1.3-0.7 0.6-0.3 1.1-0.8 1.7-1.3 0.6-0.7 1-1.3 1.3-2.1 0.4-0.8 0.6-1.7 0.6-2.8v-2.5c0-0.9-0.2-1.7-0.6-2.7-0.3-1-1-1.7-1.8-2.6-0.8-0.8-2.1-1.4-3.5-1.9-1.4-0.5-3.2-0.7-5.5-0.7-4.4 0-7.3 0.9-9 2.7-1.3 1.6-2.2 3.5-2.3 5.7 0 0.5-0.4 0.8-0.9 0.8h-9.3c-0.5 0-0.9-0.4-0.9-0.9v-2.3c0-2.2 0.4-4.3 1.2-6.2 0.8-2.1 2.2-3.8 4.1-5.3 1.8-1.4 4.2-2.7 7.1-3.4 2.8-0.6 6.2-1.1 10.2-1.1zm11.4 35.1c-0.2 0.9-0.7 1.5-1.3 2-0.7 0.5-1.3 0.7-2 1-1.3 0.5-2.8 1-4.3 1.5-1.5 0.6-3 1.1-4.3 1.5-1.6 0.6-3.2 1.1-4.5 1.6-1.1 0.5-2.1 1.1-3.1 1.8-0.8 0.7-1.5 1.6-2.2 2.7-0.7 1.2-1 2.5-1 4.2q0 4.9 2.4 7.5c1.6 1.6 4.6 2.5 8.9 2.5 4.4 0 7.4-0.9 9.1-2.6 1.6-1.7 2.4-4.2 2.4-7.3zm153.6-35.1c7.7 0 13.5 1.5 17.1 4.6 3.6 3.1 5.4 6.9 5.4 11.5v39c0 1.6-0.3 3.3-0.9 5.2-0.6 1.9-1.7 3.7-3.3 5.2-1.6 1.5-4 2.9-6.9 4-2.9 1.1-6.7 1.6-11.4 1.6-4.7 0-8.5-0.6-11.4-1.6-2.9-1-5.2-2.4-6.9-4-1.7-1.6-2.8-3.3-3.3-5.2-0.6-1.9-0.9-3.7-0.9-5.2v-6.2c0-3.3 0.9-6.4 2.6-9.2 1.7-2.7 4.2-4.7 7.3-5.8 1.6-0.6 3.3-1.1 5.4-1.8 2-0.7 4-1.3 5.9-2.1 1.9-0.7 3.5-1.2 5-1.7 1.4-0.6 2.3-0.8 2.7-1 0.3-0.2 0.8-0.4 1.3-0.7 0.6-0.3 1.1-0.8 1.7-1.3 0.6-0.7 1-1.3 1.3-2.1 0.4-0.8 0.6-1.7 0.6-2.8v-2.5c0-0.9-0.2-1.7-0.6-2.7-0.3-1-1-1.7-1.8-2.6-0.9-0.8-2.1-1.4-3.5-1.9-1.4-0.5-3.2-0.7-5.5-0.7-4.4 0-7.3 0.9-9 2.7-1.3 1.6-2.2 3.5-2.3 5.7 0 0.5-0.4 0.8-0.9 0.8h-9.6c-0.5 0-0.9-0.4-0.9-0.9v-2.3c0-2.2 0.4-4.3 1.2-6.2 0.8-1.9 2.2-3.7 4.1-5.2 1.8-1.4 4.2-2.7 7.1-3.4 3-0.7 6.4-1.2 10.4-1.2zm11.3 35.1c-0.2 0.9-0.7 1.5-1.3 2-0.7 0.5-1.3 0.7-2 1-1.3 0.5-2.8 1-4.3 1.5-1.5 0.6-3 1.1-4.3 1.5-1.6 0.6-3.2 1.1-4.5 1.6-1.1 0.5-2.1 1.1-3.1 1.8-0.8 0.7-1.5 1.6-2.2 2.7-0.7 1.1-1 2.5-1 4.2q0 4.9 2.4 7.5c1.6 1.6 4.6 2.5 8.9 2.5 4.4 0 7.4-0.9 9.1-2.6 1.6-1.7 2.4-4.2 2.4-7.3z"/>
</svg>